<svg width="40" height="39" viewBox="0 0 40 39" fill="none" xmlns="http://www.w3.org/2000/svg">
<path d="M1.96026 17.7632C1.65508 21.2632 2.40088 24.7755 4.10335 27.8562C5.80582 30.9368 8.38852 33.4474 11.5248 35.0705C14.6611 36.6935 18.2101 37.356 21.7231 36.9744C25.2361 36.5927 28.5553 35.1839 31.2609 32.9262C33.9665 30.6685 35.937 27.6632 36.9232 24.2904C37.9095 20.9177 37.8672 17.3288 36.8017 13.9778C35.7361 10.6268 33.6953 7.66413 30.9371 5.46439C28.179 3.26465 24.8274 1.92666 21.3063 1.61963C16.5847 1.20792 11.8938 2.67747 8.26573 5.70498C4.63764 8.73249 2.3695 13.07 1.96026 17.7632Z" fill="url(#paint0_radial_1801_797)"/>
<path opacity="0.03" d="M11.7443 18.6163C11.6069 20.1927 11.9428 21.7747 12.7096 23.1622C13.4764 24.5498 14.6397 25.6806 16.0523 26.4116C17.4649 27.1426 19.0634 27.441 20.6457 27.2691C22.2279 27.0972 23.7229 26.4627 24.9415 25.4458C26.1602 24.4289 27.0477 23.0753 27.4919 21.5562C27.9361 20.0371 27.9171 18.4207 27.4371 16.9113C26.9572 15.402 26.038 14.0676 24.7957 13.0768C23.5534 12.086 22.0439 11.4834 20.4579 11.3451C18.3313 11.1597 16.2185 11.8216 14.5844 13.1852C12.9502 14.5488 11.9287 16.5024 11.7443 18.6163Z" fill="#FFE500"/>
<path opacity="0.03" d="M18.5586 33.127C10.8846 32.4579 5.20274 25.7318 5.86787 18.104C6.53299 10.4761 13.2932 4.83495 20.9672 5.5041C28.6413 6.17325 34.3231 12.8993 33.658 20.5272C32.9929 28.155 26.2326 33.7962 18.5586 33.127Z" fill="#FFE500"/>
<path d="M19.6305 20.8405C18.7831 20.7666 18.1557 20.0239 18.2292 19.1816C18.3026 18.3394 19.0491 17.7165 19.8964 17.7904C20.7438 17.8643 21.3711 18.607 21.2977 19.4492C21.2242 20.2915 20.4778 20.9143 19.6305 20.8405Z" fill="#FFFFF7"/>
<defs>
<radialGradient id="paint0_radial_1801_797" cx="0" cy="0" r="1" gradientUnits="userSpaceOnUse" gradientTransform="translate(-4077.9 1724.65) rotate(-175.017) scale(219.808 218.486)">
<stop stop-color="#FFE500"/>
<stop offset="0.09" stop-color="#FFE70F" stop-opacity="0.78"/>
<stop offset="0.2" stop-color="#FFE81E" stop-opacity="0.58"/>
<stop offset="0.3" stop-color="#FFE92B" stop-opacity="0.4"/>
<stop offset="0.4" stop-color="#FFEA35" stop-opacity="0.26"/>
<stop offset="0.51" stop-color="#FFEB3D" stop-opacity="0.14"/>
<stop offset="0.61" stop-color="#FFEC42" stop-opacity="0.06"/>
<stop offset="0.71" stop-color="#FFEC46" stop-opacity="0.02"/>
<stop offset="0.81" stop-color="#FFEC47" stop-opacity="0"/>
</radialGradient>
</defs>
</svg>
